HIERARCHY
ROOT joint_Root
{
	OFFSET 0.0 0.0 0.0
	CHANNELS 6 Xposition Yposition Zposition Zrotation Xrotation Yrotation 
	JOINT Hips
	{
		OFFSET -17.1583 93.1646 452.98
		CHANNELS 6 Xposition Yposition Zposition Zrotation Xrotation Yrotation 
		JOINT Spine
		{
			OFFSET 15.7357 0.0 0.0
			CHANNELS 6 Xposition Yposition Zposition Zrotation Xrotation Yrotation 
			JOINT Chest
			{
				OFFSET 8.98455 -0.406207 0.0
				CHANNELS 6 Xposition Yposition Zposition Zrotation Xrotation Yrotation 
				JOINT Neck
				{
					OFFSET 16.3773 0.0 0.0
					CHANNELS 6 Xposition Yposition Zposition Zrotation Xrotation Yrotation 
					JOINT Head
					{
						OFFSET 6.45672 0.0 0.0
						CHANNELS 6 Xposition Yposition Zposition Zrotation Xrotation Yrotation 
						End Site
						{
							OFFSET 0.0 0.0 0.0
						}
					}
				}
				JOINT Shoulder_L
				{
					OFFSET 12.9942 -0.242716 4.98039
					CHANNELS 6 Xposition Yposition Zposition Zrotation Xrotation Yrotation 
					JOINT UpperArm_L
					{
						OFFSET 5.34809 0.0 0.0
						CHANNELS 6 Xposition Yposition Zposition Zrotation Xrotation Yrotation 
						JOINT LowerArm_L
						{
							OFFSET 24.3286 1.87007e-05 0.0
							CHANNELS 6 Xposition Yposition Zposition Zrotation Xrotation Yrotation 
							JOINT Hand_L
							{
								OFFSET 22.2916 0.0 0.0
								CHANNELS 6 Xposition Yposition Zposition Zrotation Xrotation Yrotation 
								End Site
								{
									OFFSET 0.0 0.0 0.0
								}
							}
						}
					}
				}
				JOINT Shoulder_R
				{
					OFFSET 12.9945 -0.242716 -4.98039
					CHANNELS 6 Xposition Yposition Zposition Zrotation Xrotation Yrotation 
					JOINT UpperArm_R
					{
						OFFSET -5.34813 0.0 0.0
						CHANNELS 6 Xposition Yposition Zposition Zrotation Xrotation Yrotation 
						JOINT LowerArm_R
						{
							OFFSET -24.3289 0.000322201 0.0
							CHANNELS 6 Xposition Yposition Zposition Zrotation Xrotation Yrotation 
							JOINT Hand_R
							{
								OFFSET -22.2915 -0.000108084 0.0
								CHANNELS 6 Xposition Yposition Zposition Zrotation Xrotation Yrotation 
								End Site
								{
									OFFSET 0.0 0.0 0.0
								}
							}
						}
					}
				}
			}
		}
		JOINT UpperLeg_L
		{
			OFFSET -2.19248 -6.46944 0.0
			CHANNELS 6 Xposition Yposition Zposition Zrotation Xrotation Yrotation 
			JOINT LowerLeg_L
			{
				OFFSET 39.0811 0.0 -1.23785e-05
				CHANNELS 6 Xposition Yposition Zposition Zrotation Xrotation Yrotation 
				JOINT Foot_L
				{
					OFFSET 40.9854 0.0 -1.26872e-05
					CHANNELS 6 Xposition Yposition Zposition Zrotation Xrotation Yrotation 
					JOINT Toes_L
					{
						OFFSET 11.7543 0.0 0.0
						CHANNELS 6 Xposition Yposition Zposition Zrotation Xrotation Yrotation 
						End Site
						{
							OFFSET 0.0 0.0 0.0
						}
					}
				}
			}
		}
		JOINT UpperLeg_R
		{
			OFFSET -2.19251 6.46944 0.0
			CHANNELS 6 Xposition Yposition Zposition Zrotation Xrotation Yrotation 
			JOINT LowerLeg_R
			{
				OFFSET -39.0811 -0.00228153 -0.0401928
				CHANNELS 6 Xposition Yposition Zposition Zrotation Xrotation Yrotation 
				JOINT Foot_R
				{
					OFFSET -40.9854 0.0 0.0
					CHANNELS 6 Xposition Yposition Zposition Zrotation Xrotation Yrotation 
					JOINT Toes_R
					{
						OFFSET -11.7543 0.0 0.0
						CHANNELS 6 Xposition Yposition Zposition Zrotation Xrotation Yrotation 
						End Site
						{
							OFFSET 0.0 0.0 0.0
						}
					}
				}
			}
		}
	}
}
MOTION
Frames:	5
Frame Time:	0.0333333
0.000000 0.000000 0.000000 0.000000 0.000000 -0.000000 -2.016240 92.270500 -0.986041 87.076600 2.290650 7.250100 15.735700 0.000005 -0.000001 84.052800 85.942700 -82.784500 8.984550 -0.406207 -0.000000 0.316480 -0.922947 2.537520 16.377300 -0.000001 -0.000001 10.493900 1.679350 -1.835670 6.456720 -0.000001 -0.000000 -4.626690 0.517314 3.376910 12.994200 -0.242716 4.980390 -93.407300 9.633780 -70.415700 5.348090 -0.000007 -0.000001 -71.036000 21.871900 -1.622130 24.328600 0.000019 0.000005 11.735800 26.570600 -24.911800 22.291600 -0.000001 0.000005 -7.408030 5.005330 7.206680 12.994500 -0.242716 -4.980390 87.267700 7.435350 -69.756500 -5.348130 -0.000001 -0.000004 -68.668600 32.442400 -5.022860 -24.328900 0.000322 -0.000009 1.298880 4.862900 -14.985700 -22.291500 -0.000108 -0.000004 -2.170810 5.294240 0.233338 -2.192480 -6.469440 -0.000000 -177.363000 3.915640 0.515097 39.081100 -0.000007 -0.000012 0.295881 -0.641905 24.747600 40.985400 -0.000006 -0.000013 1.961880 5.066770 -73.495300 11.754300 -0.000000 0.000003 -0.000607 0.177288 -9.385510 -2.192510 6.469440 -0.000001 -174.588000 10.090600 -173.717000 -39.081100 -0.002282 -0.040193 0.111953 -0.376383 16.098400 -40.985400 0.000008 0.000006 3.621900 2.009380 -71.357000 -11.754300 -0.000006 -0.000006 -0.011503 0.282212 -5.104640
0.000000 0.000000 0.000000 0.000000 0.000000 -0.000000 -2.096970 92.281000 -1.057620 87.092200 2.204850 7.180850 15.735700 0.000005 -0.000001 84.041200 85.957700 -82.781300 8.984550 -0.406207 -0.000000 0.286296 -0.921250 2.520520 16.377300 -0.000001 -0.000001 10.450900 1.709250 -1.908100 6.456720 -0.000001 -0.000000 -4.747400 0.557668 3.176450 12.994200 -0.242716 4.980390 -93.416300 9.697330 -70.485500 5.348090 -0.000007 -0.000001 -70.652800 20.789700 -1.630280 24.328600 0.000019 0.000005 12.255800 26.114300 -26.266900 22.291600 -0.000001 0.000005 -8.230070 4.972680 7.896280 12.994500 -0.242716 -4.980390 87.266400 7.453750 -69.793700 -5.348130 -0.000001 -0.000004 -68.610700 32.430000 -4.993800 -24.328900 0.000322 -0.000009 1.312000 4.889970 -15.050400 -22.291500 -0.000108 -0.000004 -2.156570 5.292050 0.294316 -2.192480 -6.469440 -0.000000 -177.326000 3.903160 0.422548 39.081100 -0.000007 -0.000012 0.295971 -0.642895 24.720700 40.985400 -0.000006 -0.000013 1.881410 4.994850 -73.495100 11.754300 -0.000000 0.000003 -0.000735 0.179200 -9.307840 -2.192510 6.469440 -0.000001 -174.546000 10.139800 -173.812000 -39.081100 -0.002282 -0.040193 0.111116 -0.374293 16.065300 -40.985400 0.000008 0.000006 3.643480 2.102400 -71.321100 -11.754300 -0.000006 -0.000006 -0.011336 0.281031 -5.153010
0.000000 0.000000 0.000000 0.000000 0.000000 -0.000000 -2.191810 92.286800 -1.122050 87.100700 2.192030 7.090800 15.735700 0.000005 -0.000001 83.712200 85.958300 -82.451200 8.984550 -0.406207 -0.000000 0.280718 -0.967403 2.522710 16.377300 -0.000001 -0.000001 10.289700 1.685900 -2.041270 6.456720 -0.000001 -0.000000 -4.950300 0.576963 2.813540 12.994200 -0.242716 4.980390 -93.436100 9.777920 -70.529100 5.348090 -0.000007 -0.000001 -70.097200 19.801900 -1.595150 24.328600 0.000019 0.000005 13.908800 26.156800 -29.325000 22.291600 -0.000001 0.000005 -9.567110 4.954920 8.264120 12.994500 -0.242716 -4.980390 87.268700 7.438260 -69.771100 -5.348130 -0.000001 -0.000004 -68.545200 32.503100 -5.129070 -24.328900 0.000322 -0.000009 1.271840 4.748880 -15.023600 -22.291500 -0.000108 -0.000004 -2.186950 5.292130 0.291902 -2.192480 -6.469440 -0.000000 -177.249000 3.852000 0.290297 39.081100 -0.000007 -0.000012 0.294885 -0.640944 24.706800 40.985400 -0.000006 -0.000013 1.828600 5.074860 -73.407300 11.754300 -0.000000 0.000003 -0.000468 0.175164 -9.471810 -2.192510 6.469440 -0.000001 -174.462000 10.142400 -173.936000 -39.081100 -0.002282 -0.040193 0.111448 -0.376758 16.012200 -40.985400 0.000008 0.000006 3.773390 2.096450 -71.231200 -11.754300 -0.000006 -0.000006 -0.011413 0.281579 -5.130570
0.000000 0.000000 0.000000 0.000000 0.000000 -0.000000 -2.278360 92.312900 -1.201310 87.128100 2.187200 6.982890 15.735700 0.000005 -0.000001 83.355900 85.965600 -82.089200 8.984550 -0.406207 -0.000000 0.261273 -1.016250 2.533990 16.377300 -0.000001 -0.000001 10.036800 1.592610 -2.163520 6.456720 -0.000001 -0.000000 -5.193880 0.588316 2.138730 12.994200 -0.242716 4.980390 -93.461000 9.845010 -70.520900 5.348090 -0.000007 -0.000001 -69.471400 18.887800 -1.262040 24.328600 0.000019 0.000005 16.319000 25.443700 -34.273700 22.291600 -0.000001 0.000005 -10.122500 4.938970 8.591230 12.994500 -0.242716 -4.980390 87.283300 7.422030 -69.830100 -5.348130 -0.000001 -0.000004 -68.481200 32.534600 -5.188500 -24.328900 0.000322 -0.000009 1.276960 4.750780 -15.075500 -22.291500 -0.000108 -0.000004 -2.184180 5.292980 0.268395 -2.192480 -6.469440 -0.000000 -177.188000 3.849070 0.187558 39.081100 -0.000007 -0.000012 0.285660 -0.624656 24.575500 40.985400 -0.000006 -0.000013 1.748360 5.105220 -73.323800 11.754300 -0.000000 0.000003 -0.000473 0.175245 -9.468530 -2.192510 6.469440 -0.000001 -174.453000 10.233000 -174.052000 -39.081100 -0.002282 -0.040193 0.106239 -0.360973 15.912500 -40.985400 0.000008 0.000006 3.683680 2.244210 -71.129000 -11.754300 -0.000006 -0.000006 -0.011409 0.281549 -5.131790
0.000000 0.000000 0.000000 0.000000 0.000000 -0.000000 -2.374050 92.325200 -1.285440 87.129800 2.176570 6.859860 15.735700 0.000005 -0.000001 83.443600 85.965900 -82.147700 8.984550 -0.406207 -0.000000 0.262221 -1.005810 2.592360 16.377300 -0.000001 -0.000001 9.736080 1.468720 -2.433330 6.456720 -0.000001 -0.000000 -5.640950 0.283971 1.328400 12.994200 -0.242716 4.980390 -93.493800 9.913330 -70.473300 5.348090 -0.000007 -0.000001 -69.038700 16.676500 -0.683466 24.328600 0.000019 0.000005 19.423300 23.855700 -41.083100 22.291600 -0.000001 0.000005 -10.511300 4.927980 8.815280 12.994500 -0.242716 -4.980390 87.282200 7.395260 -69.756100 -5.348130 -0.000001 -0.000004 -68.356700 32.642200 -5.324360 -24.328900 0.000322 -0.000009 1.249890 4.619760 -15.169100 -22.291500 -0.000108 -0.000004 -2.088720 5.293950 0.241287 -2.192480 -6.469440 -0.000000 -177.124000 3.831000 0.000596 39.081100 -0.000007 -0.000012 0.285222 -0.624298 24.554800 40.985400 -0.000006 -0.000013 1.670050 5.062000 -73.226500 11.754300 -0.000000 0.000003 -0.000269 0.172030 -9.599110 -2.192510 6.469440 -0.000001 -174.347000 10.142100 -174.220000 -39.081100 -0.002282 -0.040193 0.105037 -0.358027 15.858800 -40.985400 0.000008 0.000006 3.677610 2.190210 -71.018900 -11.754300 -0.000006 -0.000006 -0.011304 0.280802 -5.162390
